<svg width="175" height="174" viewBox="0 0 175 174" fill="none" xmlns="http://www.w3.org/2000/svg">
<path fill-rule="evenodd" clip-rule="evenodd" d="M160.439 23.4872C157.834 20.5636 153.895 18.0191 148.024 16.3875C140.616 14.3289 135.092 14.7238 130.88 16.3066C126.652 17.8952 123.48 20.7801 120.959 24.159C118.42 27.5622 116.619 31.358 115.077 34.6894L114.885 35.105C114.203 36.5812 113.545 38.0064 112.906 39.1719C112.258 40.3561 111.401 41.7263 110.215 42.5299C105.785 45.5301 101.935 45.0219 99.886 43.2709C98.456 42.65 97.0253 41.4793 95.842 39.5115C95.4282 38.8234 95.2525 38.0708 95.1679 37.4406C95.0809 36.7924 95.0694 36.1037 95.0899 35.4318C95.1267 34.2227 95.28 32.7888 95.4355 31.3349L95.4355 31.3349L95.4798 30.9189C95.8317 27.6102 96.1812 23.912 95.7075 20.3408C95.2411 16.8246 93.9951 13.5894 91.2514 11.0792C88.4849 8.54826 83.9167 6.49892 76.3082 5.96296C64.389 5.12334 56.8828 9.6606 52.2012 15.4822C47.5084 21.3177 45.515 28.6346 45.1339 33.671C45.5051 35.6538 46.3433 38.6802 47.6951 41.5255C49.15 44.5879 50.9995 47.017 53.1131 48.0581C57.1344 50.0388 59.6689 52.9363 60.8533 55.8047C61.4401 57.2257 61.7202 58.7056 61.6104 60.0888C61.5426 60.944 61.312 61.8577 60.8368 62.6713L60.8546 62.6747C60.4458 64.3461 59.1519 65.476 57.97 66.1485C56.7241 66.8574 55.1954 67.3086 53.557 67.4917C50.2558 67.8606 46.1664 67.1833 42.1547 64.7903C39.9141 63.4537 36.3656 63.0702 32.459 63.3325C28.787 63.579 25.2075 64.3654 22.9767 65.031C18.003 67.8248 11.6055 73.0875 8.13995 79.847C6.40095 83.2388 5.41198 86.9791 5.66264 91.0026C5.91326 95.0257 7.41364 99.4979 10.9109 104.322C15.3266 110.413 19.749 113.311 23.8464 114.448C27.9518 115.587 32.0229 115.04 35.9087 113.697C39.8282 112.342 43.4266 110.226 46.5694 108.337L46.962 108.101C48.3516 107.265 49.6995 106.454 50.8788 105.848C52.0676 105.238 53.5699 104.568 55.0031 104.592C59.557 104.669 62.0959 106.741 63.023 108.97C64.1379 109.815 64.633 111.121 64.8181 112.254C65.0393 113.607 64.9086 115.163 64.4798 116.756C63.6161 119.964 61.4564 123.656 57.6763 126.845C55.5641 128.627 53.8852 131.883 52.6949 135.638C51.5761 139.169 51.0102 142.747 50.8264 145.021C51.675 150.419 54.3707 157.78 59.5866 162.746C62.2037 165.238 65.432 167.108 69.3895 167.879C73.3466 168.65 78.197 168.354 84.1233 166.26C91.6058 163.616 96.0235 160.166 98.6294 156.58C101.24 152.987 102.217 149.004 102.361 144.997C102.506 140.955 101.801 137.027 101.146 133.585L101.064 133.155C100.774 131.633 100.492 130.157 100.346 128.892C100.198 127.616 100.109 126.031 100.661 124.685C102.176 120.987 104.569 119.081 106.796 118.427L106.686 118.323C107.89 117.14 109.535 116.84 110.909 116.901C112.333 116.964 113.841 117.415 115.282 118.161C118.188 119.666 121.116 122.521 123.013 126.803C124.054 129.153 126.649 131.392 129.907 133.28C132.958 135.048 136.234 136.304 138.377 136.938C143.881 137.21 151.911 136.121 158.448 132.118C164.912 128.16 170.156 121.227 169.896 109.121C169.731 101.387 167.782 96.468 165.153 93.2783C162.527 90.0926 159.008 88.3728 155.181 87.4335C151.311 86.484 147.273 86.3646 143.702 86.2968L143.255 86.2884L143.255 86.2884L143.255 86.2884L143.254 86.2884C141.679 86.2593 140.142 86.2309 138.855 86.1146C137.57 85.9986 135.935 85.7621 134.742 84.92C131.749 82.8078 130.632 80.3107 130.562 78.1777L130.41 78.2425C129.736 76.6674 130.179 75.0234 130.761 73.8405C131.384 72.5754 132.396 71.3364 133.664 70.2329C136.217 68.0109 140.072 66.1031 144.91 65.5567C147.66 65.2461 150.949 63.3994 154.135 60.8537C157.139 58.4529 159.734 55.6883 161.241 53.8329C163.816 48.6825 166.107 40.7824 164.998 33.5018C164.442 29.8577 163.044 26.411 160.439 23.4872ZM61.1084 110.977L58.4577 111.273C58.4583 111.284 58.4586 111.291 58.4582 111.292C58.4577 111.295 58.4562 111.29 58.4527 111.278C58.4025 111.116 57.9554 109.672 54.626 109.616L54.6309 109.616C54.6309 109.616 54.6298 109.616 54.6276 109.617C54.606 109.619 54.4767 109.634 54.2007 109.729C53.8764 109.84 53.4561 110.025 52.9197 110.3C51.91 110.819 50.7194 111.535 49.2729 112.405L49.2722 112.405L48.9234 112.615C45.7996 114.493 41.7678 116.884 37.2664 118.44C32.7314 120.008 27.5912 120.776 22.2674 119.299C16.9358 117.819 11.7113 114.169 6.83543 107.443C2.89948 102.014 1.01321 96.6936 0.696682 91.6128C0.380194 86.5324 1.64356 81.8573 3.7493 77.7501C7.91778 69.6195 15.4292 63.609 21.0348 60.5205L21.2722 60.3897L21.5285 60.3106C24.0586 59.53 28.1648 58.6053 32.4228 58.3194C36.5902 58.0396 41.3674 58.3357 44.8697 60.4249C48.0367 62.3141 51.0922 62.7451 53.301 62.4982C54.4175 62.3735 55.235 62.0858 55.7266 61.8061C55.9938 61.654 56.0942 61.55 56.1166 61.5236C56.1022 61.5443 56.0599 61.6143 56.0277 61.7461L58.3816 62.199L56.7323 60.0229C56.6696 60.0735 56.6394 60.114 56.6285 60.1315C56.6416 60.1031 56.677 60.0066 56.6933 59.8016C56.7262 59.3866 56.6503 58.7179 56.3038 57.8788C55.6217 56.2269 53.9811 54.1578 50.8907 52.6356C47.3149 50.8743 44.8622 47.2287 43.2506 43.8364C41.6055 40.3735 40.6283 36.7307 40.2218 34.3762L40.17 34.0766L40.1895 33.7712C40.563 27.9209 42.8082 19.3036 48.4285 12.3147C54.1562 5.19228 63.2456 -0.0432927 76.7667 0.909163C85.0584 1.49325 90.7779 3.77855 94.5838 7.26045C98.4124 10.7632 100.024 15.2191 100.596 19.5358C101.161 23.7975 100.732 28.0741 100.384 31.3456L100.346 31.704C100.183 33.2325 100.051 34.4657 100.021 35.4651C100.005 35.9937 100.021 36.3702 100.056 36.6281C100.07 36.7367 100.085 36.8017 100.093 36.8329C100.887 38.1259 101.679 38.5525 102.19 38.7017C102.472 38.7841 102.725 38.7993 102.929 38.7833C103.032 38.7752 103.117 38.7597 103.182 38.7434C103.214 38.7353 103.239 38.7275 103.257 38.7212C103.275 38.7149 103.284 38.711 103.283 38.7112L103.671 39.6494C104.303 39.7667 105.501 39.6837 107.41 38.3907C107.41 38.3906 107.441 38.3684 107.5 38.3073C107.566 38.2405 107.652 38.1411 107.758 37.9988C107.975 37.7086 108.227 37.3066 108.521 36.7705C109.073 35.7629 109.659 34.4949 110.367 32.9625L110.367 32.9621L110.368 32.962L110.54 32.5898C112.074 29.2746 114.065 25.0386 116.951 21.1693C119.856 17.2757 123.742 13.6473 129.121 11.6261C134.516 9.59904 141.149 9.28751 149.362 11.5701C155.989 13.4115 160.821 16.4 164.172 20.1611C167.523 23.9221 169.264 28.312 169.94 32.7483C171.278 41.5203 168.487 50.6291 165.581 56.3306L165.466 56.5567L165.307 56.7551C163.629 58.857 160.698 62.0092 157.256 64.7596C153.888 67.4516 149.674 70.0504 145.471 70.5251C141.619 70.9602 138.719 72.4624 136.947 74.0045C136.052 74.783 135.51 75.5146 135.247 76.0492C135.099 76.3495 135.076 76.5001 135.073 76.5322C135.074 76.5079 135.068 76.4173 135.007 76.275L134.269 76.591L135.734 77.35C135.735 77.3476 135.735 77.3491 135.733 77.3544C135.693 77.4588 135.095 79.0211 137.801 80.9302C137.8 80.9297 137.8 80.9295 137.801 80.9297L137.808 80.9326C137.868 80.9562 138.274 81.1176 139.44 81.2229C140.53 81.3213 141.876 81.3465 143.522 81.3773L143.916 81.3847C147.459 81.452 152.038 81.5662 156.535 82.67C161.075 83.784 165.673 85.9373 169.158 90.1656C172.641 94.39 174.799 100.426 174.981 108.91C175.278 122.751 169.118 131.343 161.102 136.251C153.273 141.044 143.913 142.194 137.67 141.826L137.386 141.81L137.115 141.732C134.637 141.029 130.813 139.59 127.22 137.508C123.702 135.469 119.997 132.582 118.331 128.821C116.844 125.466 114.656 123.463 112.802 122.503C111.863 122.016 111.08 121.832 110.563 121.809C110.282 121.797 110.153 121.83 110.122 121.841C110.142 121.832 110.197 121.801 110.272 121.728L109.041 120.559L108.358 123.094C108.368 123.096 108.374 123.097 108.376 123.098C108.378 123.098 108.378 123.099 108.378 123.099C108.378 123.1 108.373 123.1 108.362 123.1C108.187 123.107 106.636 123.17 105.353 126.299L105.355 126.295C105.355 126.295 105.355 126.296 105.354 126.298C105.349 126.319 105.315 126.445 105.304 126.731C105.292 127.066 105.314 127.509 105.381 128.085C105.506 129.169 105.755 130.473 106.057 132.057L106.13 132.439C106.781 135.86 107.591 140.266 107.424 144.907C107.257 149.582 106.097 154.627 102.713 159.284C99.3241 163.947 93.8879 167.967 85.6244 170.887C78.954 173.244 73.1444 173.693 68.1438 172.718C63.1438 171.744 59.1169 169.379 55.9471 166.361C49.6726 160.387 46.67 151.787 45.7716 145.72L45.7336 145.464L45.7522 145.203C45.936 142.618 46.5632 138.509 47.8601 134.416C49.1295 130.411 51.1771 125.975 54.4768 123.191C57.4616 120.673 59.0044 117.895 59.5829 115.746C59.8754 114.659 59.9008 113.814 59.8134 113.279C59.7658 112.988 59.7029 112.867 59.6858 112.839C59.7003 112.858 59.7523 112.916 59.8678 112.98L61.1084 110.977ZM59.6858 112.839C59.6826 112.835 59.6812 112.833 59.6813 112.833C59.6813 112.833 59.6817 112.833 59.6822 112.834L59.6858 112.839ZM110.122 121.841C110.117 121.843 110.114 121.844 110.114 121.844C110.114 121.844 110.114 121.844 110.115 121.843C110.116 121.843 110.118 121.842 110.122 121.841ZM135.073 76.5322C135.073 76.5365 135.073 76.5387 135.073 76.5387C135.073 76.5387 135.073 76.5385 135.073 76.5379L135.073 76.5322ZM56.6235 60.1408C56.6236 60.1409 56.6255 60.138 56.6285 60.1315C56.6248 60.1373 56.6233 60.1406 56.6235 60.1408ZM56.1166 61.5236C56.1197 61.5191 56.1216 61.517 56.1217 61.517C56.1218 61.5171 56.1203 61.5193 56.1166 61.5236Z" fill="#F3B8D4"/>
</svg>
