<svg width="417" height="414" viewBox="0 0 417 414" fill="none" xmlns="http://www.w3.org/2000/svg">
<path fill-rule="evenodd" clip-rule="evenodd" d="M227.865 26.5493C214.386 18.5959 196.494 15.8803 173.454 30.0429C158.449 39.2662 151.154 48.5957 147.804 56.9635C144.446 65.3495 144.577 73.9535 146.589 82.5873C148.635 91.3655 152.482 99.6138 156.123 107.178L156.338 107.625L156.585 108.137L156.588 108.144L156.588 108.144L156.588 108.144C158.178 111.442 159.806 114.819 160.983 117.788C162.106 120.621 163.718 125.131 163.125 129.674C161.716 140.474 156.294 147.304 150.1 150.345C145.502 154.092 138.646 156.393 129.767 154.921C125.127 154.152 121.382 151.075 119.283 149.251C117.011 147.277 114.524 144.76 112.138 142.345C111.901 142.106 111.666 141.868 111.432 141.631C105.921 136.062 99.992 130.233 93.1208 125.966C86.4117 121.8 79.3147 119.453 71.4067 120.3C63.4356 121.155 53.2027 125.409 40.5804 137.235C21.1591 155.432 18.0274 173.552 20.9372 188.798C23.889 204.263 33.3074 217.753 41.433 225.606C45.4561 227.779 51.8411 230.605 58.6341 232.389C66.3498 234.415 72.776 234.613 76.87 233.002C87.6901 228.743 97.9224 228.657 105.916 231.183C109.86 232.429 113.551 234.411 116.416 237.155C117.981 238.654 119.564 240.663 120.602 243.107C123.896 247.591 123.766 252.841 122.987 256.468C122.146 260.386 120.226 264.237 117.677 267.699C112.52 274.704 103.983 281.237 92.3943 284.804C87.6088 286.277 81.9209 290.977 76.3271 297.899C71.3255 304.088 67.3284 310.888 65.0714 315.465C62.482 327.608 62.0959 345.272 68.4328 360.133C74.5718 374.529 87.3691 387.324 114.32 389.579C131.872 391.048 143.278 387.861 150.937 383.108C158.612 378.346 163.608 371.34 167.107 363.194C170.664 354.912 172.456 345.989 174.01 337.739C174.072 337.408 174.134 337.075 174.197 336.742L174.207 336.686C174.883 333.088 175.574 329.403 176.386 326.313C177.161 323.366 178.538 318.779 181.708 315.472C189.721 307.115 198.726 305.059 205.718 306.821C209.884 306.36 213.656 307.804 216.27 309.323C219.735 311.337 222.802 314.355 225.304 317.852C230.366 324.925 233.932 335.067 233.733 347.19C233.65 352.197 236.357 359.061 241.205 366.524C245.54 373.197 250.766 379.105 254.419 382.669C265.163 388.893 281.838 394.734 297.93 393.313C313.52 391.937 329.65 383.734 340.146 358.808C346.981 342.575 347.484 330.743 345.339 321.988C343.189 313.215 338.075 306.294 331.414 300.443C324.642 294.495 316.714 290.026 309.351 285.993C309.16 285.888 308.968 285.784 308.775 285.678L308.411 285.479L308.41 285.479C305.199 283.722 301.909 281.923 299.224 280.193C296.662 278.543 292.727 275.813 290.565 271.774C286.035 263.31 285.836 255.539 288.09 249.653C287.915 244.24 290.843 240.029 293.436 237.47C296.288 234.654 300.006 232.487 304.036 230.99C312.19 227.961 322.912 227.18 334.558 230.553C339.368 231.946 346.702 231.135 355.175 228.415C362.752 225.982 369.823 222.489 374.221 219.899C383.046 211.165 393.056 196.606 395.908 180.705C398.67 165.3 394.985 147.583 373.686 130.915C359.815 120.061 348.529 116.471 339.519 116.245C330.488 116.018 322.468 119.136 315.076 124.029C307.559 129.004 301.167 135.482 295.343 141.529L294.787 142.106L294.619 142.281L294.6 142.301C292.062 144.939 289.463 147.641 287.09 149.779C284.825 151.819 281.159 154.9 276.694 155.926C265.701 158.453 257.201 155.462 252.258 150.398C248.757 148.337 246.607 145.064 245.395 142.374C243.749 138.72 243.012 134.481 243.012 130.181C243.012 121.483 246.014 111.16 253.231 101.417C256.211 97.3936 258.005 90.236 258.405 81.3455C258.764 73.3962 257.951 65.5508 257.055 60.5263C251.94 49.2124 241.778 34.7591 227.865 26.5493ZM206.049 317.362L199.885 325.733C200.428 326.133 200.772 326.232 200.884 326.253C200.866 326.252 200.841 326.252 200.811 326.253C200.776 326.255 200.732 326.259 200.681 326.266C200.384 326.305 198.891 326.584 196.521 328.931L196.514 328.949C196.41 329.202 196.117 329.922 195.729 331.399C195.109 333.757 194.55 336.728 193.824 340.592L193.664 341.439C192.128 349.598 190.015 360.536 185.484 371.086C180.894 381.773 173.621 392.57 161.482 400.103C149.325 407.645 133.371 411.244 112.652 409.51C78.3713 406.64 59.103 389.241 50.0357 367.978C41.3528 347.616 42.4045 324.759 45.8141 309.927L46.0555 308.876L46.5153 307.902C49.2419 302.12 54.2662 293.378 60.7717 285.328C67.0506 277.558 75.8733 268.963 86.5106 265.689C94.2006 263.322 99.0767 259.23 101.572 255.841C102.849 254.106 103.315 252.819 103.433 252.271C103.437 252.252 103.44 252.235 103.443 252.219C103.449 252.19 103.454 252.164 103.457 252.143C103.439 252.466 103.483 253.617 104.52 254.997L112.419 249.058L101.793 248.65C101.721 250.502 102.482 251.479 102.613 251.629C102.605 251.621 102.594 251.611 102.581 251.598C102.38 251.406 101.57 250.785 99.8901 250.254C96.6337 249.225 91.1202 248.886 84.1952 251.612C74.0932 255.588 62.5428 254.093 53.5548 251.733C44.2438 249.289 35.7227 245.385 30.5263 242.426L29.5192 241.852L28.6699 241.063C18.1416 231.285 5.34858 213.802 1.29181 192.547C-2.91024 170.53 2.50946 145.498 26.9061 122.64C41.6701 108.808 55.7655 101.862 69.2754 100.414C82.8483 98.9594 94.3847 103.208 103.672 108.976C112.797 114.642 120.226 122.084 125.648 127.564L126.194 128.115C128.787 130.737 130.734 132.706 132.401 134.154C133.105 134.766 133.577 135.116 133.843 135.302C136.254 135.569 137.191 135.017 137.324 134.937C137.446 134.864 137.494 134.81 137.494 134.81C137.494 134.81 137.492 134.812 137.488 134.817C137.478 134.83 137.442 134.878 137.39 134.974C137.341 135.063 137.251 135.247 137.158 135.542L142.403 137.199V132.188C141.73 132.188 141.394 132.312 141.291 132.362C141.323 132.34 141.377 132.299 141.447 132.231C141.663 132.023 142.7 130.913 143.217 127.617L143.212 127.599L143.212 127.599C143.145 127.334 142.954 126.58 142.391 125.161C141.493 122.895 140.181 120.171 138.476 116.63L138.475 116.629L138.475 116.628L138.101 115.852C134.501 108.371 129.718 98.3097 127.111 87.1273C124.471 75.8005 123.927 62.793 129.236 49.5301C134.553 36.2488 145.268 23.8919 162.98 13.0044C192.287 -5.00999 218.12 -2.42285 238.028 9.32427C257.093 20.5733 269.798 39.6036 275.846 53.5688L276.274 54.5578L276.482 55.6154C277.714 61.8877 278.851 71.9065 278.385 82.2459C277.935 92.2254 275.927 104.378 269.302 113.322C264.513 119.787 263.012 125.973 263.012 130.181C263.012 132.336 263.4 133.649 263.631 134.16C263.653 134.209 263.671 134.248 263.687 134.278C263.509 134.006 262.792 133.105 261.138 132.609L258.779 140.476L267.122 137.376C266.887 136.745 266.654 136.473 266.572 136.394C266.603 136.417 266.66 136.453 266.749 136.495C267.019 136.625 268.42 137.21 271.689 136.548L271.705 136.537C271.929 136.382 272.57 135.941 273.705 134.918C275.516 133.287 277.613 131.109 280.339 128.276L280.937 127.655C286.696 121.675 294.462 113.688 304.037 107.351C313.736 100.932 325.74 95.8919 340.021 96.2511C354.323 96.6107 369.638 102.352 386.011 115.165C413.103 136.365 419.673 161.481 415.594 184.234C411.687 206.023 398.272 224.559 387.287 235.091L386.509 235.837L385.59 236.4C380.139 239.739 371.143 244.294 361.289 247.458C351.777 250.511 339.685 252.86 328.995 249.764C321.266 247.526 314.945 248.273 311 249.738C308.981 250.488 307.885 251.31 307.486 251.703C307.448 251.741 307.418 251.772 307.395 251.797C307.588 251.536 308.182 250.55 308.071 248.827L299.997 249.347L305.954 257.671C306.502 257.279 306.703 256.982 306.757 256.882C306.744 256.919 306.724 256.983 306.706 257.08C306.652 257.375 306.455 258.88 307.952 261.861C308.147 262.026 308.738 262.532 310.053 263.379C312.103 264.699 314.754 266.151 318.203 268.038L318.959 268.452C326.24 272.441 335.985 277.839 344.612 285.416C353.351 293.091 361.364 303.352 364.764 317.228C368.169 331.123 366.647 347.407 358.578 366.569C345.228 398.274 322.715 411.203 299.689 413.236C277.639 415.182 256.232 407.1 243.187 399.263L242.263 398.708L241.479 397.968C236.826 393.585 230.071 386.099 224.433 377.419C218.991 369.042 213.553 357.99 213.735 346.862C213.868 338.817 211.488 332.913 209.039 329.491C207.785 327.739 206.705 326.897 206.221 326.615C206.174 326.588 206.137 326.567 206.107 326.552C206.409 326.669 207.517 326.984 209.15 326.426L206.049 317.362ZM206.024 326.514C206.024 326.516 206.052 326.531 206.107 326.552C206.05 326.522 206.023 326.512 206.024 326.514ZM306.773 256.846C306.773 256.845 306.766 256.857 306.757 256.882C306.77 256.859 306.774 256.846 306.773 256.846ZM307.336 251.867C307.339 251.867 307.36 251.844 307.395 251.797C307.352 251.844 307.334 251.867 307.336 251.867ZM266.572 136.394C266.559 136.386 266.551 136.379 266.546 136.375C266.544 136.373 266.542 136.371 266.542 136.37C266.541 136.37 266.541 136.37 266.541 136.369C266.541 136.369 266.541 136.369 266.541 136.369C266.541 136.368 266.552 136.376 266.572 136.394ZM263.732 134.357C263.733 134.355 263.719 134.327 263.687 134.278C263.715 134.334 263.731 134.359 263.732 134.357ZM141.291 132.362L141.281 132.368C141.275 132.373 141.269 132.376 141.265 132.378C141.26 132.381 141.257 132.382 141.257 132.382C141.256 132.381 141.267 132.373 141.291 132.362ZM102.613 251.629C102.626 251.643 102.632 251.65 102.632 251.65C102.632 251.65 102.629 251.647 102.623 251.641L102.613 251.629ZM103.457 252.143C103.461 252.084 103.466 252.053 103.468 252.052C103.469 252.051 103.468 252.08 103.457 252.143ZM200.884 326.253C200.911 326.254 200.924 326.256 200.924 326.257C200.924 326.257 200.922 326.258 200.918 326.257C200.911 326.257 200.9 326.256 200.884 326.253Z" fill="#FFC9E3"/>
</svg>
