<svg width="37" height="37" viewBox="0 0 37 37" fill="none" xmlns="http://www.w3.org/2000/svg">
<path fill-rule="evenodd" clip-rule="evenodd" d="M33.782 17.0753C33.7149 16.4786 33.4542 15.7501 32.8 14.9004C31.9537 13.8011 31.2094 13.3669 30.6339 13.2034C30.0545 13.0389 29.4634 13.0967 28.8311 13.3121C28.1782 13.5344 27.5659 13.8936 26.9527 14.2664L26.8727 14.3152C26.6112 14.4744 26.3181 14.653 26.0544 14.7888C25.8239 14.9076 25.3239 15.1579 24.7533 15.1422C23.3557 15.1038 22.38 14.3318 22.1061 13.3593C21.9088 12.9473 21.8033 12.4478 21.8398 11.8713C21.8778 11.2718 22.2118 10.7955 22.3447 10.607C22.5063 10.3779 22.7129 10.1278 22.8913 9.91184L22.8913 9.91182L22.9466 9.84482C23.3691 9.33251 23.7594 8.8405 24.0202 8.30676C24.2685 7.79874 24.3574 7.33559 24.2578 6.8634C24.1562 6.3819 23.8135 5.67795 22.7879 4.78414C21.2668 3.4586 19.9554 3.40214 18.9197 3.71086C17.849 4.03005 16.9317 4.79261 16.3949 5.44754C16.2708 5.76315 16.1246 6.23039 16.049 6.71233C15.9515 7.33342 16.015 7.70169 16.0876 7.84238C16.5996 8.83526 16.7233 9.845 16.5463 10.6963C16.4595 11.1139 16.2899 11.5388 16.0097 11.8978C15.8702 12.0765 15.6706 12.2766 15.4107 12.4331C14.8787 12.876 14.2472 12.9051 13.8563 12.8618C13.4081 12.8121 12.9804 12.6449 12.6078 12.4249C11.8498 11.9772 11.1377 11.2056 10.6881 10.1412C10.6023 9.93815 10.2978 9.59108 9.70021 9.20076C9.21958 8.88685 8.70071 8.64285 8.33883 8.50168C7.39543 8.41283 6.10406 8.53684 5.09506 9.09357C4.15575 9.61185 3.32153 10.5661 3.35739 12.602C3.38169 13.9809 3.71728 14.7622 4.07443 15.2258C4.4334 15.6917 4.9314 15.9889 5.55705 16.1855C6.20391 16.3888 6.8999 16.4594 7.60755 16.5197L7.70002 16.5275L7.70007 16.5275C8.0017 16.5529 8.34094 16.5816 8.63163 16.6273C8.88444 16.6671 9.43685 16.76 9.88813 17.1125C10.7814 17.8105 11.1576 18.7313 11.078 19.5552C11.1477 20.036 11.0178 20.4673 10.8915 20.7463C10.7054 21.157 10.4139 21.5119 10.0893 21.7979C9.42873 22.3799 8.47445 22.8179 7.32314 22.9156C7.1035 22.9343 6.67918 23.1162 6.1229 23.5635C5.67552 23.9232 5.28276 24.3409 5.03641 24.6412C4.65963 25.5107 4.37741 26.7769 4.5941 27.9088C4.79584 28.9624 5.44465 30.0513 7.39151 30.648C8.71005 31.0521 9.55689 30.9751 10.1083 30.7792C10.6625 30.5823 11.0994 30.2008 11.4802 29.6669C11.8739 29.1149 12.1567 28.475 12.4332 27.8209L12.4693 27.7354C12.587 27.4565 12.7193 27.1428 12.8529 26.8805C12.969 26.6525 13.2285 26.156 13.7035 25.8362C14.4709 25.3196 15.2726 25.1764 15.9539 25.321C16.5945 25.2823 17.1008 25.5854 17.3891 25.8238C17.7367 26.111 18.0026 26.4855 18.1935 26.8738C18.5818 27.6639 18.7541 28.6996 18.5463 29.8362C18.5067 30.0531 18.5709 30.5103 18.8566 31.1644C19.0863 31.6905 19.3864 32.1791 19.6116 32.4956C20.3517 33.0873 21.4996 33.6918 22.6486 33.7796C23.7183 33.8614 24.9392 33.521 26.0258 31.7989C26.7617 30.6325 26.9096 29.7952 26.8652 29.2117C26.8205 28.6252 26.5671 28.1036 26.1518 27.596C25.7224 27.0712 25.1791 26.6305 24.6204 26.192L24.5474 26.1348L24.5473 26.1347L24.5472 26.1347L24.547 26.1345L24.5468 26.1344C24.3087 25.9478 24.041 25.7379 23.8231 25.5404C23.6335 25.3685 23.2225 24.9879 23.0385 24.4455C22.7683 23.649 22.8035 22.906 23.0514 22.312L23.0475 22.3112C23.1906 21.5776 23.7178 21.1525 24.0736 20.9483C24.4649 20.7236 24.9099 20.6048 25.3421 20.561C26.2214 20.4717 27.2591 20.6688 28.2607 21.2588C28.4582 21.3751 28.9214 21.474 29.6453 21.4331C30.23 21.4001 30.8035 21.287 31.1852 21.1846C32.0121 20.6926 32.995 19.8197 33.4855 18.7661C33.7334 18.2337 33.8491 17.6722 33.782 17.0753ZM9.53179 19.6867L8.3995 19.0179L8.21159 18.9069C8.13361 19.0389 8.10347 19.1531 8.09202 19.234C8.08264 19.3002 8.08341 19.3606 8.09062 19.4132C8.09312 19.4314 8.09639 19.4488 8.10028 19.4651C8.10709 19.4936 8.11489 19.516 8.12183 19.5327C8.15647 19.5005 8.17197 19.4801 8.17532 19.4757C8.17578 19.4751 8.17602 19.4748 8.17603 19.4748L8.17547 19.4758C8.17363 19.4789 8.1674 19.4893 8.15877 19.5084C8.15687 19.5126 8.15097 19.5258 8.14351 19.5469C8.20793 19.5854 8.25886 19.6055 8.28254 19.6135C8.26393 19.6088 8.22652 19.6005 8.1655 19.5909C8.15425 19.5891 8.1428 19.5874 8.13112 19.5857C8.09478 19.7111 8.05273 19.9755 8.20104 20.2982L9.53179 19.6867ZM8.0698 19.5772C7.90106 19.7111 7.57217 19.8837 7.06937 19.9264C5.93461 20.0227 4.92677 20.6757 4.24306 21.2255C3.51723 21.8091 2.91144 22.478 2.5563 22.9408L2.45787 23.069L2.38903 23.2153C1.80477 24.4568 1.26297 26.4638 1.64762 28.4729C2.05992 30.6264 3.51063 32.5962 6.51236 33.5163C8.28669 34.0601 9.81333 34.0678 11.1128 33.606C12.4095 33.1452 13.3009 32.2806 13.9226 31.409C14.5313 30.5555 14.9253 29.6304 15.1964 28.9891L15.2188 28.9362L15.2188 28.9362C15.3524 28.6201 15.4423 28.4075 15.5237 28.2468C15.6075 28.4462 15.6849 28.8062 15.5952 29.2969C15.3905 30.4172 15.7562 31.561 16.1073 32.365C16.4801 33.2185 16.9667 33.9786 17.32 34.4427L17.418 34.5713L17.5411 34.6761C18.5858 35.5656 20.3803 36.615 22.42 36.7709C24.6062 36.938 26.8877 36.0549 28.563 33.3997C29.5533 31.8302 29.9612 30.3591 29.8565 28.984C29.7521 27.6118 29.1515 26.5248 28.4736 25.6962C27.8097 24.8848 27.0203 24.262 26.4726 23.8321L26.4275 23.7967C26.336 23.7249 26.2547 23.6611 26.182 23.6034C26.3484 23.6494 26.5365 23.725 26.7381 23.8437C27.7227 24.4237 28.9304 24.4783 29.8146 24.4283C30.7531 24.3753 31.6437 24.1828 32.2068 24.0127L32.3605 23.9662L32.5008 23.8883C33.7099 23.2173 35.3373 21.8965 36.2052 20.0323C36.6505 19.0757 36.9006 17.9619 36.7632 16.7399C36.6257 15.5176 36.1114 14.2838 35.1771 13.0703C34.038 11.5907 32.7887 10.6967 31.4535 10.3175C30.1221 9.93939 28.8855 10.1244 27.864 10.4722C26.8631 10.8131 25.9956 11.3373 25.394 11.7031L25.3439 11.7336L25.3438 11.7337L25.3438 11.7337L25.2108 11.8145L25.2314 11.7896L25.2612 11.7534C25.6717 11.2557 26.28 10.5153 26.7155 9.62406C27.1637 8.70708 27.4692 7.55261 27.1932 6.24422C26.9192 4.94513 26.1164 3.70552 24.7589 2.52247C22.4668 0.525025 20.0893 0.231777 18.0627 0.835882C16.1476 1.40678 14.6831 2.73142 13.893 3.77641L13.7881 3.91509L13.7178 4.07407C13.4942 4.5793 13.2211 5.38172 13.0853 6.24724C12.9934 6.83277 12.9404 7.59161 13.1086 8.34355C12.6201 7.61539 11.9189 7.06664 11.3407 6.68901C10.5609 6.17973 9.73715 5.81103 9.18715 5.61675L9.03472 5.5629L8.87431 5.54277C7.5129 5.37192 5.4368 5.47864 3.64575 6.46688C1.72597 7.52615 0.302557 9.51581 0.357861 12.6549C0.390549 14.5104 0.856285 15.9643 1.69797 17.0567C2.53784 18.1468 3.63617 18.7265 4.6575 19.0475C5.65762 19.3618 6.65924 19.4498 7.353 19.5088L7.41014 19.5137L7.41032 19.5137C7.69715 19.5381 7.90517 19.5558 8.0698 19.5772ZM13.7074 9.9834C13.9588 9.85596 14.1664 9.87777 14.1865 9.87999C14.2073 9.8823 14.2192 9.88497 14.2227 9.88576C14.2235 9.88592 14.2238 9.88601 14.2238 9.88599C14.2239 9.8858 14.1925 9.87664 14.1335 9.84182C14.1044 9.82461 14.0722 9.80319 14.0378 9.77721C14.1292 9.74279 14.2371 9.71694 14.3624 9.70907L14.4597 11.2594L13.4486 10.1649C13.5051 10.1128 13.5617 10.0699 13.6171 10.0348C13.6149 10.0544 13.6121 10.0714 13.6091 10.0858C13.605 10.1057 13.6012 10.1177 13.5993 10.1229L13.5981 10.1259C13.5982 10.1259 13.5986 10.1249 13.5993 10.1229C13.603 10.1146 13.6156 10.0893 13.6448 10.0519C13.6557 10.038 13.6764 10.0133 13.7074 9.9834ZM8.28254 19.6135C8.2927 19.6161 8.29726 19.6177 8.297 19.6178C8.29674 19.6179 8.29165 19.6166 8.28254 19.6135ZM15.4777 28.136C15.4831 28.1405 15.5061 28.1593 15.5456 28.1833C15.5637 28.1637 15.5764 28.1479 15.584 28.1377C15.5776 28.1478 15.5676 28.1643 15.5543 28.1886C15.6698 28.2567 15.9101 28.3593 16.251 28.3024L16.0306 26.9814L15.0539 27.8419L14.8901 27.9862C14.9915 28.1013 15.0907 28.1653 15.1641 28.2012C15.2241 28.2307 15.2818 28.2487 15.3341 28.2581C15.3522 28.2614 15.3696 28.2636 15.3863 28.265C15.4163 28.2674 15.4404 28.2669 15.4586 28.2654C15.4784 28.249 15.4959 28.2331 15.5112 28.2184C15.5078 28.211 15.5044 28.2038 15.501 28.197C15.4741 28.1422 15.4543 28.1165 15.4505 28.1114L15.4498 28.1105L15.4506 28.1113C15.4531 28.1139 15.4616 28.1227 15.4777 28.136ZM15.5925 28.1253C15.5925 28.125 15.5896 28.1288 15.584 28.1377C15.5897 28.13 15.5925 28.1256 15.5925 28.1253ZM24.8067 12.0537C24.7962 12.0331 24.7816 12.0087 24.7615 11.9819C24.7205 11.9271 24.6663 11.8765 24.5998 11.8342C24.5396 11.7958 24.4481 11.7508 24.3169 11.7235L24.2544 12.0241L24.0941 12.7956L24.8199 12.722L25.0232 12.7013C25.0076 12.5471 24.9634 12.4362 24.9241 12.3638C24.9022 12.3234 24.8782 12.2882 24.8534 12.258C24.8328 12.2854 24.8138 12.3112 24.7964 12.336C24.7753 12.3658 24.7609 12.3881 24.7516 12.4033C24.7676 12.3699 24.7941 12.3045 24.8132 12.2136C24.8021 12.2026 24.791 12.1925 24.7801 12.1833C24.7605 12.1669 24.7433 12.1548 24.7292 12.1461C24.6483 12.1525 24.5916 12.1674 24.5677 12.1749C24.5854 12.1679 24.622 12.1521 24.6805 12.1219C24.7201 12.1015 24.7619 12.0789 24.8067 12.0537ZM24.5551 12.1794C24.555 12.1796 24.5591 12.1784 24.5677 12.1749C24.5595 12.1775 24.5552 12.1792 24.5551 12.1794ZM24.7378 12.4283C24.7385 12.4281 24.7438 12.4195 24.7516 12.4033C24.741 12.4205 24.7371 12.4286 24.7378 12.4283ZM25.5672 23.55C25.5782 23.5437 25.696 23.476 25.8083 23.3203C25.7849 23.2784 25.7643 23.2496 25.7527 23.2348C25.764 23.2471 25.7856 23.2694 25.8211 23.3023C25.8911 23.2005 25.9572 23.0639 25.992 22.8858L24.8323 22.6595L25.3283 23.6687L25.4245 23.8646C25.5621 23.797 25.65 23.718 25.7039 23.6567C25.7379 23.6179 25.765 23.5789 25.7861 23.541C25.7329 23.5396 25.6857 23.5415 25.645 23.5456C25.571 23.5531 25.5377 23.5656 25.5376 23.5654L25.5389 23.5647C25.5422 23.5632 25.5519 23.5588 25.5672 23.55ZM25.7527 23.2348C25.7457 23.227 25.7427 23.2233 25.743 23.2233C25.7431 23.2233 25.7442 23.2244 25.7459 23.2264L25.7527 23.2348ZM24.6895 12.1259L24.6924 12.1269C24.6904 12.1263 24.6895 12.1259 24.6895 12.1259ZM15.4988 28.2586L15.4963 28.2594L15.498 28.2589C15.4986 28.2587 15.4989 28.2586 15.4988 28.2586Z" fill="#F3B8C3"/>
</svg>
